<?xml version="1.0" standalone="no"?>
<!DOCTYPE svg PUBLIC "-//W3C//DTD SVG 20010904//EN"
 "http://www.w3.org/TR/2001/REC-SVG-20010904/DTD/svg10.dtd">
<svg version="1.0" xmlns="http://www.w3.org/2000/svg"
 width="1280.000000pt" height="1280.000000pt" viewBox="0 0 1280.000000 1280.000000"
 preserveAspectRatio="xMidYMid meet">

<g transform="translate(0.000000,1280.000000) scale(0.100000,-0.100000)"
fill="#000000" stroke="none">
<path d="M8665 9229 c-267 -28 -478 -81 -729 -183 -376 -154 -782 -496 -1020
-860 -265 -403 -401 -844 -436 -1411 -12 -196 -7 -366 21 -618 28 -257 86
-512 155 -681 13 -34 30 -74 37 -91 27 -67 176 -354 213 -410 21 -33 65 -95
97 -138 32 -43 55 -83 51 -89 -4 -6 -3 -8 3 -5 6 4 19 -3 29 -16 17 -20 18
-20 1 -7 -16 12 -20 12 -27 0 -6 -10 -10 -7 -16 14 -4 19 -9 24 -14 15 -5 -7
-2 -18 5 -25 7 -8 16 -19 18 -26 4 -10 8 -9 17 2 9 12 10 11 5 -7 -7 -26 20
-73 42 -73 8 0 11 -4 8 -10 -3 -5 -1 -10 6 -10 8 0 9 -3 0 -13 -13 -16 -5 -28
14 -21 10 4 12 -1 8 -15 -4 -17 -1 -21 20 -21 14 0 27 -7 30 -14 4 -10 1 -13
-9 -9 -7 3 -14 0 -14 -6 0 -6 9 -11 21 -11 11 0 17 -5 14 -10 -3 -6 0 -13 8
-16 9 -3 13 -13 10 -25 -4 -15 0 -19 23 -20 16 -1 33 -1 38 0 5 1 5 -4 -1 -11
-8 -10 -1 -23 28 -53 21 -22 39 -43 39 -47 0 -5 9 -8 20 -8 12 0 24 -9 29 -22
9 -24 97 -108 113 -108 4 0 8 -4 8 -10 0 -5 9 -10 20 -10 11 0 20 -7 20 -15 0
-8 11 -17 25 -21 13 -3 27 -15 31 -26 4 -15 12 -18 29 -14 18 5 25 1 30 -14 3
-11 13 -20 21 -20 8 0 23 -9 34 -20 11 -11 25 -20 32 -20 6 0 26 -11 44 -25
18 -14 42 -25 53 -25 12 0 21 -4 21 -9 0 -5 14 -12 30 -16 17 -4 30 -13 30
-20 0 -8 15 -17 36 -21 19 -4 38 -13 41 -20 3 -8 13 -14 22 -14 9 0 29 -7 45
-15 15 -8 34 -15 41 -15 7 0 18 -6 24 -14 10 -12 80 -29 127 -31 6 0 19 -6 27
-14 9 -7 28 -14 42 -15 14 0 25 -7 25 -13 0 -14 26 -13 49 1 9 6 19 1 32 -15
10 -13 19 -18 19 -11 0 9 5 10 19 2 11 -5 29 -10 40 -10 12 0 21 -4 21 -10 0
-14 28 -12 32 2 3 9 10 8 22 -5 13 -13 32 -17 65 -16 25 1 91 -2 146 -6 146
-12 299 -12 390 -1 44 5 97 8 118 7 21 -1 36 2 33 7 -3 5 12 6 37 1 55 -11 59
-11 53 0 -8 13 41 20 53 8 7 -7 15 -6 26 3 9 7 50 15 93 17 42 3 89 5 105 6
15 1 27 7 27 13 0 12 37 28 55 24 6 -1 18 -3 28 -5 11 -3 17 2 17 16 0 16 7
19 50 19 36 0 52 4 56 15 4 9 13 13 24 10 9 -3 23 1 30 10 7 8 23 15 37 15 17
0 22 4 17 12 -5 9 -2 8 9 -1 20 -15 27 -12 31 16 2 13 16 21 49 27 30 6 49 15
52 27 3 10 20 21 38 25 18 3 45 20 61 35 17 16 36 29 43 29 7 0 21 8 31 18 10
9 35 26 55 36 20 10 34 22 32 27 -3 4 11 13 30 20 20 7 42 23 50 36 9 13 22
23 31 23 8 0 24 16 35 35 12 19 27 35 35 35 7 0 18 9 24 20 6 11 15 20 21 20
13 0 68 60 75 82 3 10 11 18 19 18 8 0 17 9 20 20 3 11 15 24 25 30 10 5 21
23 25 40 4 17 11 28 15 25 5 -3 17 7 27 22 10 15 20 30 24 33 4 3 14 25 22 50
11 33 12 49 4 58 -8 10 -7 12 4 10 8 -2 14 4 14 12 0 8 -6 14 -12 13 -17 -4
-16 0 5 24 9 11 23 18 31 15 12 -4 12 -2 1 9 -14 15 -52 21 -44 7 3 -4 0 -8
-6 -8 -6 0 -8 -5 -4 -12 5 -8 2 -9 -9 -5 -11 4 -23 -3 -37 -20 -11 -14 -20
-23 -20 -19 0 3 22 34 49 69 99 126 286 437 271 450 -5 4 -816 409 -832 415
-4 2 -15 -14 -24 -35 -43 -102 -217 -335 -337 -450 -121 -116 -247 -196 -412
-261 -375 -147 -890 -125 -1248 53 -325 163 -590 477 -711 844 -91 274 -118
463 -119 826 0 230 3 291 22 415 26 172 40 229 50 211 10 -16 21 8 21 45 0 13
4 24 9 24 13 0 24 37 15 52 -5 8 -10 6 -15 -8 -5 -13 -8 -14 -8 -4 0 8 4 22 9
30 6 10 10 11 10 3 0 -7 5 -13 10 -13 6 0 10 12 10 26 0 23 1 24 16 9 9 -9 19
-13 22 -10 3 3 0 11 -6 17 -7 7 -12 21 -12 32 0 10 3 16 7 13 3 -4 12 -2 19 3
6 6 18 9 25 8 8 -2 15 7 17 21 2 13 11 26 20 28 10 3 33 37 52 77 19 39 46 81
60 94 82 76 105 98 108 105 1 4 4 7 7 7 2 0 17 12 32 26 16 15 39 30 51 35 13
5 26 18 29 29 3 11 10 20 15 20 5 0 21 9 35 20 14 11 22 20 18 20 -11 0 54 47
82 59 11 5 24 15 28 20 3 6 15 11 25 11 10 0 25 6 32 13 7 8 26 17 41 21 15 3
35 15 45 26 9 11 27 20 39 20 13 0 23 5 23 11 0 6 10 9 23 8 12 -2 28 0 36 5
7 5 34 10 59 12 26 2 49 10 54 18 5 8 16 12 29 9 12 -3 24 -1 28 5 4 6 58 16
121 22 63 6 120 16 129 23 11 9 15 9 18 0 6 -16 63 -17 63 -2 0 7 17 10 45 7
25 -2 45 0 45 4 0 5 9 8 20 8 11 0 20 -4 20 -10 0 -5 19 -10 43 -10 24 0 46
-2 49 -5 3 -3 49 -8 103 -11 75 -3 101 -8 110 -21 8 -11 20 -14 36 -10 18 5
28 1 36 -12 7 -11 35 -23 75 -31 34 -7 68 -17 73 -23 7 -7 6 -8 -2 -3 -7 4
-13 3 -13 -3 0 -5 15 -13 33 -16 17 -4 40 -14 49 -22 10 -9 25 -12 37 -8 13 4
21 2 21 -5 0 -8 8 -10 21 -7 16 4 19 3 11 -5 -14 -14 27 -48 58 -48 16 0 20
-4 15 -19 -3 -11 -1 -22 4 -26 7 -3 8 0 5 9 -3 9 -1 16 5 16 7 0 14 -7 18 -16
3 -8 12 -13 20 -10 8 3 11 1 8 -4 -3 -6 -2 -10 3 -10 23 0 18 29 -9 58 -17 18
-26 32 -22 32 13 0 124 -128 188 -216 78 -108 113 -165 126 -203 13 -37 21
-38 77 -6 24 14 49 22 55 18 5 -3 7 -2 4 4 -4 5 6 10 23 10 16 0 27 -4 24 -8
-8 -14 89 3 104 17 7 8 19 11 25 7 6 -4 8 0 4 10 -4 12 1 17 21 19 21 2 26 8
24 23 -2 15 0 16 6 7 8 -12 13 -12 31 -1 11 8 21 19 21 26 0 7 11 13 24 13 19
0 23 5 22 30 -1 16 -4 30 -8 30 -5 0 -8 -4 -8 -8 0 -5 -10 -8 -22 -7 -13 1
-29 -5 -36 -14 -8 -9 -11 -10 -7 -3 10 19 -9 14 -39 -9 -15 -12 -29 -19 -32
-17 -4 4 46 39 347 245 50 34 96 64 102 66 19 6 -11 62 -114 217 -220 329
-398 501 -711 689 -260 156 -552 242 -963 286 -149 16 -447 18 -580 4z m-68
-925 c-3 -3 -12 -4 -19 -1 -8 3 -5 6 6 6 11 1 17 -2 13 -5z m-112 -34 c-3 -5
-12 -10 -18 -10 -7 0 -6 4 3 10 19 12 23 12 15 0z m1150 -40 c3 -6 -1 -7 -9
-4 -18 7 -21 14 -7 14 6 0 13 -4 16 -10z m236 -152 c19 -18 28 -27 19 -20 -21
15 -33 16 -24 0 4 -7 3 -8 -4 -4 -7 4 -12 12 -12 18 0 6 -17 26 -37 45 -31 28
-33 31 -8 15 17 -11 46 -35 66 -54z m659 -393 c-7 -8 -17 -15 -23 -15 -6 0 -2
7 9 15 25 19 30 19 14 0z m-45 -38 c-4 -8 -14 -18 -23 -21 -9 -3 -24 -9 -32
-12 -8 -3 1 8 20 25 37 31 44 33 35 8z m50 -27 c-3 -5 -11 -10 -16 -10 -6 0
-7 5 -4 10 3 6 11 10 16 10 6 0 7 -4 4 -10z m-2938 -382 c-3 -8 -6 -5 -6 6 -1
11 2 17 5 13 3 -3 4 -12 1 -19z m-437 -2592 c25 -27 38 -46 30 -41 -8 5 -25
22 -38 37 -13 15 -29 25 -34 21 -7 -4 -8 -1 -3 7 4 7 2 16 -6 22 -8 5 -9 8 -4
6 6 -2 31 -25 55 -52z m85 -86 c3 -6 -1 -7 -9 -4 -18 7 -21 14 -7 14 6 0 13
-4 16 -10z m56 -57 l34 -38 -40 35 c-22 19 -42 36 -44 38 -2 1 0 2 5 2 6 0 26
-17 45 -37z"/>
<path d="M1396 9138 c-10 -29 -16 -1377 -16 -3212 -1 -1522 -3 -1953 -13
-1965 -9 -11 -9 -13 0 -8 6 4 14 3 18 -3 3 -5 1 -10 -4 -10 -18 0 -12 -36 9
-55 12 -11 20 -31 20 -51 0 -21 7 -38 20 -47 10 -7 24 -25 29 -40 6 -16 18
-27 30 -27 10 0 26 -12 36 -26 10 -15 22 -23 31 -20 9 4 19 -4 26 -19 8 -18
17 -24 29 -20 12 4 22 -1 29 -15 9 -16 21 -20 65 -20 32 0 55 5 57 12 3 9 15
9 48 0 24 -6 48 -8 53 -5 6 3 40 7 76 7 36 1 75 7 87 13 15 9 24 9 32 1 7 -7
16 -7 28 0 10 6 29 6 47 1 23 -6 28 -5 24 6 -6 14 28 15 51 1 7 -4 12 -3 12 3
0 6 11 13 25 17 27 7 33 19 13 27 -7 2 3 9 22 14 19 5 40 18 45 29 6 10 22 31
37 46 16 15 28 37 28 50 0 13 9 29 20 36 12 7 20 23 20 40 0 16 3 31 6 35 3 3
5 133 4 289 -1 156 -2 292 -1 303 0 11 0 119 0 239 0 218 16 436 33 436 5 0 8
6 7 13 -1 6 0 19 4 27 21 55 35 113 31 124 -3 7 7 18 21 24 14 7 24 16 21 21
-8 12 87 91 107 91 9 0 19 5 22 10 3 6 16 10 28 10 12 0 41 7 63 15 45 15 201
27 209 16 2 -4 26 -6 52 -5 174 10 218 8 237 -11 17 -17 30 -20 21 -5 -3 6 -1
10 4 10 6 0 11 -4 11 -10 0 -5 8 -10 17 -10 28 0 87 -24 104 -42 9 -10 24 -18
32 -18 9 0 24 -11 33 -24 8 -14 21 -23 28 -20 7 3 32 -19 57 -47 24 -29 56
-64 72 -78 15 -14 27 -31 27 -38 0 -7 9 -23 20 -35 49 -55 55 -64 55 -73 0 -6
8 -19 18 -30 55 -61 87 -110 87 -131 0 -13 5 -24 10 -24 6 0 10 -5 10 -11 0
-6 14 -28 30 -49 17 -21 30 -45 30 -53 0 -32 31 -89 46 -83 9 3 14 -1 14 -11
0 -24 37 -98 60 -118 11 -10 20 -28 20 -41 0 -14 8 -25 20 -29 11 -3 20 -13
20 -20 0 -20 40 -85 53 -85 6 0 7 -3 4 -7 -4 -3 -1 -13 5 -20 16 -20 47 -110
40 -117 -3 -3 4 -6 16 -6 15 0 22 -8 27 -31 4 -17 13 -33 21 -36 8 -3 14 -13
14 -23 0 -10 8 -21 18 -24 17 -6 42 -49 42 -73 0 -7 6 -13 13 -13 17 -1 43
-39 52 -78 3 -18 11 -30 16 -26 5 3 9 -4 9 -14 0 -11 7 -25 15 -32 8 -7 15
-19 15 -26 0 -8 4 -14 9 -14 5 0 14 -13 21 -30 7 -16 19 -30 26 -30 8 0 19
-11 24 -25 5 -14 21 -30 35 -35 14 -5 25 -16 25 -24 0 -10 16 -17 48 -22 26
-4 58 -15 72 -24 37 -26 144 -39 335 -40 94 -1 184 -1 200 0 17 1 36 2 44 3 8
0 22 8 32 18 10 10 31 21 46 24 35 8 58 20 59 31 0 5 6 22 12 37 7 16 10 33 6
38 -3 5 -1 9 5 9 6 0 8 6 5 14 -3 8 0 17 6 21 8 5 5 12 -7 22 -12 10 -14 16
-6 19 17 7 -19 41 -49 46 -13 2 37 8 110 12 72 5 132 10 132 13 0 13 -497 861
-855 1458 -208 348 -234 395 -208 372 20 -17 21 -17 27 0 4 9 4 14 0 10 -9 -8
-34 11 -34 27 0 7 3 7 8 -1 12 -19 56 5 77 40 20 33 74 87 87 87 5 0 13 11 18
25 5 14 16 25 24 25 8 0 32 20 54 45 22 25 45 45 51 45 6 0 11 7 11 15 0 8 3
15 8 15 4 0 16 14 27 30 11 16 25 30 30 30 6 0 21 23 34 51 14 28 35 58 48 66
13 9 22 22 19 29 -6 15 22 71 59 120 20 26 24 38 16 48 -8 10 -8 16 2 25 8 6
17 7 22 3 4 -4 2 3 -4 15 -9 19 -9 22 3 17 9 -4 18 8 28 38 7 24 18 42 23 41
6 -1 10 18 10 42 0 24 -3 39 -7 32 -6 -9 -8 -9 -8 0 0 6 7 19 16 27 8 9 13 20
9 26 -3 5 1 23 10 41 9 17 14 33 11 36 -3 3 -10 -7 -16 -22 -6 -15 -13 -25
-16 -22 -3 3 3 22 14 44 11 21 23 53 27 71 4 19 11 30 17 26 7 -4 8 -2 4 4 -4
7 2 45 13 84 34 125 45 226 45 433 1 213 -10 315 -50 475 -55 223 -179 461
-325 623 -202 226 -532 416 -855 492 -249 59 -223 58 -1537 62 -982 3 -1208 1
-1211 -9z m1881 -1103 c38 -4 64 -2 68 5 3 6 12 7 18 3 7 -4 37 -9 67 -10 30
-1 98 -6 150 -11 52 -5 97 -6 100 -3 3 4 24 2 48 -4 24 -6 40 -13 37 -16 -3
-4 20 -9 51 -12 30 -3 66 -13 79 -21 14 -9 34 -16 45 -16 25 0 110 -37 110
-48 0 -4 17 -16 38 -27 20 -10 55 -37 77 -60 22 -22 52 -49 68 -58 15 -10 27
-24 27 -32 0 -8 6 -12 15 -9 9 4 16 -3 20 -19 4 -14 15 -33 26 -43 10 -9 19
-23 19 -30 0 -7 5 -16 11 -19 7 -5 8 6 5 32 -4 29 -4 32 3 13 15 -43 12 -272
-4 -351 -41 -192 -165 -369 -325 -463 -73 -43 -148 -73 -245 -99 -77 -20 -106
-21 -692 -24 l-613 -4 -25 25 c-14 14 -26 38 -26 53 -1 15 -4 39 -7 53 -3 14
-7 198 -9 409 -3 331 -1 387 12 407 8 13 15 33 15 44 0 11 4 28 9 38 5 9 19
42 31 74 12 31 36 69 54 86 40 36 120 82 145 82 10 0 21 3 24 7 4 3 17 8 30 9
12 2 56 9 97 17 41 8 104 15 140 17 36 1 85 5 110 10 44 7 70 7 197 -5z m1868
-1495 c3 -6 -1 -7 -9 -4 -18 7 -21 14 -7 14 6 0 13 -4 16 -10z m-567 -675 c-3
-3 -9 2 -12 12 -6 14 -5 15 5 6 7 -7 10 -15 7 -18z m-2151 -1477 c-3 -7 -5 -2
-5 12 0 14 2 19 5 13 2 -7 2 -19 0 -25z m-10 -185 c-3 -10 -5 -4 -5 12 0 17 2
24 5 18 2 -7 2 -21 0 -30z m2017 -29 c3 -8 2 -12 -4 -9 -6 3 -10 10 -10 16 0
14 7 11 14 -7z m70 -120 c3 -8 2 -12 -4 -9 -6 3 -10 10 -10 16 0 14 7 11 14
-7z"/>
<path d="M10012 7925 c4 -4 3 -14 -3 -22 -7 -8 -8 -13 -1 -13 15 0 23 28 9 36
-7 4 -9 4 -5 -1z"/>
<path d="M10021 7886 c-9 -10 -8 -15 4 -20 10 -4 15 1 15 14 0 24 -4 25 -19 6z"/>
<path d="M10058 7843 c7 -3 16 -2 19 1 4 3 -2 6 -13 5 -11 0 -14 -3 -6 -6z"/>
<path d="M10720 7806 c0 -2 7 -7 16 -10 8 -3 12 -2 9 4 -6 10 -25 14 -25 6z"/>
<path d="M10120 7781 c0 -5 5 -13 10 -16 6 -3 10 -2 10 4 0 5 -4 13 -10 16 -5
3 -10 2 -10 -4z"/>
<path d="M10160 7696 c0 -2 7 -7 16 -10 8 -3 12 -2 9 4 -6 10 -25 14 -25 6z"/>
<path d="M10430 7569 c0 -5 5 -7 10 -4 6 3 10 8 10 11 0 2 -4 4 -10 4 -5 0
-10 -5 -10 -11z"/>
<path d="M1342 5620 c0 -14 2 -19 5 -12 2 6 2 18 0 25 -3 6 -5 1 -5 -13z"/>
<path d="M6973 4805 c0 -7 6 -11 14 -8 9 4 11 0 6 -13 -6 -16 -5 -17 9 -4 18
17 16 26 -10 32 -11 3 -19 0 -19 -7z"/>
<path d="M2450 4119 c0 -11 4 -18 10 -14 5 3 7 12 3 20 -7 21 -13 19 -13 -6z"/>
</g>
</svg>
